<?xml version="1.0" standalone="no"?>
<!DOCTYPE svg PUBLIC "-//W3C//DTD SVG 20010904//EN"
 "http://www.w3.org/TR/2001/REC-SVG-20010904/DTD/svg10.dtd">
<svg version="1.0" xmlns="http://www.w3.org/2000/svg"
 width="392.000000pt" height="392.000000pt" viewBox="0 0 392.000000 392.000000"
 preserveAspectRatio="xMidYMid meet">
<metadata>
Created by potrace 1.14, written by Peter Selinger 2001-2017
</metadata>
<g transform="translate(0.000000,392.000000) scale(0.100000,-0.100000)"
fill="#000000" stroke="none">
<path d="M405 3863 c-111 -23 -129 -34 -159 -94 -15 -30 -36 -70 -48 -89 -11
-19 -21 -40 -22 -47 -1 -7 -9 -20 -18 -30 -31 -35 -51 -86 -57 -145 -1 -5 -7
-8 -15 -8 -8 0 -17 -7 -20 -16 -7 -19 11 -57 24 -49 6 3 7 -1 4 -9 -3 -9 -10
-16 -16 -16 -5 0 -6 6 -2 13 4 6 3 8 -1 4 -5 -4 -11 -15 -13 -25 -6 -31 -3
-402 3 -423 7 -20 115 -77 287 -150 58 -24 58 -24 59 -69 1 -25 1 -49 0 -53
-1 -5 7 -11 17 -14 17 -4 17 -8 4 -66 -15 -65 -57 -167 -70 -167 -8 0 -43 -55
-42 -65 1 -22 -3 -27 -9 -11 -6 16 -13 9 -46 -40 -21 -33 -54 -79 -72 -103
-31 -41 -32 -46 -17 -62 8 -9 27 -22 42 -28 l27 -11 0 -229 c0 -178 3 -232 14
-244 13 -16 138 -80 221 -113 26 -11 40 -22 40 -34 0 -10 7 -26 16 -34 8 -9
12 -20 9 -26 -4 -6 -9 -39 -11 -75 -4 -52 -2 -67 13 -82 10 -10 27 -36 38 -57
24 -44 48 -60 81 -52 13 4 24 2 24 -3 0 -5 4 -21 10 -36 8 -22 13 -24 30 -15
12 6 20 7 20 1 0 -19 99 -111 119 -111 11 0 26 6 34 14 12 13 16 10 25 -23 12
-40 45 -81 65 -81 7 0 19 -19 27 -41 19 -55 64 -79 142 -79 32 0 58 -4 58 -8
0 -29 120 -43 156 -18 19 14 21 12 32 -44 9 -41 18 -61 31 -65 12 -3 18 -16
19 -35 1 -59 42 -110 87 -110 30 0 72 -30 59 -43 -3 -3 6 -13 21 -23 20 -13
31 -15 50 -6 21 10 26 8 45 -22 24 -40 66 -60 116 -54 29 3 42 -1 61 -20 21
-21 31 -24 73 -20 26 3 65 14 87 25 l39 21 2 -31 c2 -17 10 -39 19 -49 17 -19
68 -24 93 -8 11 7 17 1 27 -22 13 -30 14 -31 68 -25 51 5 54 4 45 -13 -16 -29
-12 -58 9 -70 11 -5 55 -10 98 -10 130 0 238 35 250 81 6 23 11 24 34 3 23
-21 91 -29 118 -14 26 13 29 12 34 -17 4 -27 33 -72 69 -105 30 -28 71 -37 83
-18 4 7 24 8 50 4 39 -5 47 -3 67 19 23 25 24 25 78 11 135 -35 262 2 222 66
-11 18 -10 20 10 20 42 0 64 11 83 41 l20 30 95 -2 94 -3 28 44 c15 24 26 45
24 48 -3 2 2 22 10 44 7 21 13 42 13 46 -1 4 0 9 1 12 1 3 3 13 5 24 2 10 8
39 14 65 6 25 13 67 15 92 4 53 -8 85 -19 50 -3 -11 -10 -21 -15 -21 -5 0 -7
6 -4 13 6 16 -21 88 -72 191 -19 39 -36 81 -39 94 -4 24 -32 77 -54 105 -8 9
-11 17 -7 17 3 0 -10 22 -29 50 -19 27 -35 52 -35 54 0 7 -58 92 -113 165 -30
41 -45 70 -41 80 14 34 7 45 -41 73 -27 16 -57 32 -65 35 -8 3 -44 37 -80 75
l-65 69 39 -3 c35 -3 41 0 58 29 20 34 54 146 63 209 16 111 17 164 6 164 -7
0 -10 4 -7 8 9 15 -40 106 -82 153 -23 25 -40 55 -40 65 2 20 -27 84 -63 139
-10 17 -22 37 -26 45 -11 25 -114 172 -160 230 -184 231 -448 469 -612 555
-15 7 -56 41 -91 75 -78 74 -73 71 -302 164 -101 41 -249 102 -330 134 -355
145 -548 194 -933 237 -159 18 -220 18 -310 -2z m-280 -542 c-9 -8 -36 -10
-30 -2 2 4 11 8 20 8 8 0 13 -3 10 -6z m125 -21 c0 -5 -2 -10 -4 -10 -3 0 -8
5 -11 10 -3 6 -1 10 4 10 6 0 11 -4 11 -10z m33 -1169 c21 10 21 10 3 -5 -12
-10 -15 -16 -7 -16 8 0 11 -6 7 -16 -4 -11 -2 -15 7 -11 7 3 13 -3 13 -14 0
-17 -2 -17 -18 -2 -9 8 -16 20 -15 27 1 6 -3 10 -8 9 -6 -1 -11 10 -12 25 0
15 1 19 4 10 4 -15 8 -16 26 -7z m65 -56 c-3 -3 -9 2 -12 12 -6 14 -5 15 5 6
7 -7 10 -15 7 -18z m-1 -21 c-3 -3 -12 -4 -19 -1 -8 3 -5 6 6 6 11 1 17 -2 13
-5z m103 -14 c0 -5 -5 -10 -11 -10 -5 0 -7 5 -4 10 3 6 8 10 11 10 2 0 4 -4 4
-10z m3392 -1440 l-9 -24 -5 22 c-4 12 -2 20 3 16 5 -3 9 0 9 7 0 7 2 10 5 7
3 -3 2 -16 -3 -28z m-192 6 c0 -3 -4 -8 -10 -11 -5 -3 -10 -1 -10 4 0 6 5 11
10 11 6 0 10 -2 10 -4z m136 -40 c1 -7 -4 -13 -12 -13 -9 0 -11 4 -4 12 5 7 8
15 5 18 -3 4 -2 5 2 2 4 -3 8 -11 9 -19z m31 -15 c0 -11 -5 -18 -9 -15 -4 3
-5 11 -1 19 7 21 12 19 10 -4z"/>
</g>
</svg>
